 <svg
    xmlns="http://www.w3.org/2000/svg"
    viewBox="0.040008544921875 0 220.86245727539062 218.5804443359375"
    class="absolute w-10 h-10"
  >
    <path
      d="M473.73,597.06c-5.45-3-8.68-11.89-8.25-15.73l1.73-.3C466.77,584.88,468.82,592.54,473.73,597.06ZM498,576.54c-6-3.13-14.27.27-14.27.27l-.31-1.8a14.26,14.26,0,0,0-12.55,14c1.36-5.17,7.92-9.36,7.92-9.36s-3.38,3.53-3.92,6.11c.95-1.35,9.07-6.71,12.84-5.91-2.14,0-10.8,4.15-12,7.31,1.26-1,6.63-.88,8-.37-4.26,2.44-10.2.31-11.55,4,5.34,2.56,19.18-.94,20.52-5.53l-3.26-.5S493.52,576.9,498,576.54Zm-30.82,2.71c7.85-2.33,9.65-12.34,8.22-20.64-.59-.22-3,1.21-3,1.21s-2.13-13.69-1.89-14.34c-3.21.73-6.62,5.49-8.83,9.17-1.46,2.45-2.4,4.43-2.4,4.43a9.76,9.76,0,0,0-2.71-1c-2.71,2.27-1.28,14.77,5.11,19.23a9.16,9.16,0,0,0,2,1.07,12,12,0,0,1-2-3.27v-4c1,2,1.89,3.44,1.89,3.44-.5-4.53.67-15,2.06-16.12a72.45,72.45,0,0,0,.79,16.32c1.62-1.35,6.65-9.34,6.65-9.34C473.39,567.61,469.39,578.23,467.14,579.25Zm-42.81-28.87c-4.25-.6-13.54-.85-15.95-.43,3.73-3.1,11.52-1.52,11.52-1.52-2.47-3-15.16-7.21-15.16-7.21,8,1,14.81,4.1,16.32,5.91a35.85,35.85,0,0,0-8.5-10.14c6.44,1.54,12.33,11.27,12.54,12.45-3.15-14.88-10.58-17.81-21.27-15.51a2,2,0,0,1,1.53,1.82c-8-.87-15.81,2.43-15.81,2.43,8.31,1.29,14.94,9.27,9.5,10.2C405.14,555.7,418.58,556.85,424.33,550.38Zm4.36,6.52c-7.44-1.95-15.59,1.3-18,6.38a12.57,12.57,0,0,1,2.59,1s-2.8,3.19-10.1,5C406.54,573.32,416,571,416,571a3,3,0,0,1-1.09,3.37c9.36-1.62,17.13-7.81,15.12-15.43,0,2.38-2.56,6.91-5.75,8.5,0,0,3.08-3.94,2-5.94-1.3,1.84-6.81,6-11.4,4.91,1.57-.27,9.49-3,10.5-5.77,0,0-4.19,1.55-6.34.76C419.33,561.12,427.81,559.3,428.69,556.9ZM483,541c4,4.82,9.92-.51,7.7-1.32s-3.85-6.27-3.36-11.9c-2.13,9.07-8.66,11.35-13,8.94C474.32,536.67,477.7,543.33,483,541Zm26.3-7.76c5.05-1.57,1.77-3.93,4.68-6.35s3.91-3.68,3.32-7.12-7.33-5.43-7.33-5.43-3.93,4-3.75,5,4.59,1.49,3.61,2.31-3.54-1.47-4.82-1.25-2.77.85-.47,1.69,4.57,4.87,2,3a51.59,51.59,0,0,0-5.59-3.35s3.37,6.58,3.62,8c-2.5-1.76-5.63-6.39-6-6.89s.07,9.4-1.17,5.28a21.86,21.86,0,0,0-2.18-5.47s-.61,8-1.14,5a9.56,9.56,0,0,0-1.48-4.21l-2.87.42c-1.16,9.36,2,19.43,10.45,17.29S504.25,534.75,509.29,533.19Zm-15.55-13.32c.46,2.7,6.35,1.91,11.33-2.24s3.78-10.23,2.47-11.81-2.26-3.21-4.09-.61-8.66,4.72-14.32,4.72c0,0,.6,2.81,2.27,3.42S493.27,517.18,493.74,519.87Zm.9-12.85c4.52-1.25,3.86-3.38,3.66-4.56s-5.25-5.68-9-4.75-3.54,3.61-3.54,3.61C486,504.29,490.12,508.26,494.64,507Zm-7.77-11.66a10.29,10.29,0,0,1,7-.16c2.2.81,7,4.16,7.57,4.06s2.12.21,1.6-2.76a10.26,10.26,0,0,0-9.12-7.72C489.71,488.38,483.17,497.17,486.87,495.36Zm-21.46-2.82c1.09,6.34,8.13,12.34,7.34,9.76s-.48-5.81.64-6-3.36-3.11-1.46-2.4,3.12,1.31,2.81-.49-3.05-6.33-1.67-4.67,4.07,5.53,3.51,2.28.42-10.95.72-7.18.44,8.88,2,5.79,3.71-6.07,2.66-3.23-1.21,3.27.74,2.53,1.16.51.33,1.21,1.21.76,1.33,1.43c.83,4.81,7.51-6.77,6.83-10.69s-4.12-8.13-7.43-4.26-7.38,4.79-10.85,5S464.31,486.2,465.41,492.54Zm14.36-1.44c-3.12.54-7.82,9.9-5.42,15.83s10.77,13.56,13.91,13,2.81-1.3,2.63-1.84c-.46-1.4-3.31-4.91-4.89-8.16a22.65,22.65,0,0,1-2.28-10.75C483.8,495.08,482.89,490.57,479.77,491.1Zm19.91-4.41c.35,2.07.68,3.2,1.26,1.63s3.91-5.12,5.26-5.35,2.31,0,4.41,1.49,1.28,1.74.81-1-4.73-5.68-7.09-5.62-2.46-2.23-6.33-1.57-4.61,6.4-4,10.19c0,0,1,0,1.59-1.52s1.26-.68,1.69,1.79.72.8.9-1.83,1.79-3.14,2.32-2.94S499.32,484.61,499.68,486.69Zm16.78,7.61c-3.28-2.32-5.14-6.39-6.52-8.05s-3.16-1.43-4.65-.18-3.36,4-3,6.22c0,0,.63,1.24,1.33.67s1.81.55,1,2.68,2.2-2.49,2.69-1.9-1.88,4.12-2.17,4.92,2-1.29,4.26-3.21,1.92-.26.35,1.05-3.5,4.17-3.4,4.73,2.81-.42,5.23-.46-.95,1.17-3.39,2.11.32,1.16,2.39.8-.42,1.23-.85,2.4.77,4.44,1.56,5.39,3.39-.12,6.45-1.11a7,7,0,0,0,4.52-7.6A13.5,13.5,0,0,0,516.46,494.3Zm7.69,14.79c-1-2.14-2.15-2.4-2-1.34s-3,5.43-8.39,5.49c-4.32,0,5.36,4.68,5.69,6.58s-1.68,5.64,0,4.21,3.89-1.59,3.42-4.28,1.54-3.15,1.87-5.23A7.71,7.71,0,0,0,524.15,509.09Zm-107.88-4.74c.75,1.94,8.07,3.26,10-2.3-4.31-2-1.86-9,.41-10.7-2.6-1.34-7.21,9.48-16.74,6.24C409.85,501.34,413.88,504.43,416.27,504.35Zm5.63-24.88c2.43-.18,5.61-3.63,4.53-7.31s-2.83-3.11-3.79-2.93-4.56,4.39-3.75,7.41S421.9,479.47,421.9,479.47Zm-4.21-14a8.41,8.41,0,0,0-6.18,7.59c-.26,3.45,7,8.66,5.5,5.66a8.45,8.45,0,0,1-.24-5.72c.63-1.82,3.29-5.81,3.21-6.26S420.12,465,417.69,465.44Zm-16,16.1a12.13,12.13,0,0,1,4.29,8.81c.27,2.84,3.85,6.94,9,5.95s10-6.84,7.88-6.16-4.75.49-4.92-.43-2.5,2.8-1.95,1.23,1-2.57-.44-2.29-5.13,2.59-3.8,1.44,4.47-3.42,1.81-2.91-9-.17-5.88-.48,7.26-.49,4.7-1.71-5-2.94-2.68-2.13,2.7.94,2.06-.64.4-1,1-.29.6-1,1.14-1.11c3.93-.75-5.65-6-8.85-5.42S398.5,478.89,401.72,481.54Zm11.92,3c.48,2.54,8.21,6.25,13,4.18A22.89,22.89,0,0,0,434,483c2-2.27,3.35-4.58,3.11-5.84-.49-2.56-1.1-2.28-1.54-2.12A8.31,8.31,0,0,0,434,476a54,54,0,0,1-5,3.2,18.44,18.44,0,0,1-8.76,2C416.83,481.2,413.15,482,413.64,484.57Zm-6.73-25.79c-2.21.42-4.58,4-4.49,5.89s-1.79,2.05-1.19,5.21,5.31,3.67,8.4,3.08c0,0,0-.83-1.27-1.27s-.57-1,1.44-1.42.64-.6-1.51-.7-2.6-1.42-2.44-1.86,2.17,1,3.86.63,2.61-.61,1.32-1-4.25-3.13-4.46-4.22,0-1.89,1.15-3.64S409.13,458.36,406.91,458.78Zm8.78-4.29c-1.85,2.72-5.15,4.3-6.49,5.46s-1.12,2.61-.08,3.81,3.31,2.69,5.14,2.34c0,0,1-.54.52-1.1s.43-1.49,2.19-.88-2.08-1.76-1.61-2.17,3.41,1.47,4.06,1.7-1.08-1.58-2.68-3.44-.25-1.57.85-.3,3.47,2.8,3.93,2.71-.4-2.3-.47-4.28,1,.77,1.78,2.74.95-.27.62-2,1,.33,2,.66,3.63-.7,4.39-1.36-.16-2.77-1-5.26a5.78,5.78,0,0,0-6.29-3.59A11.09,11.09,0,0,0,415.69,454.49ZM475,428.59s-2.68,2.92-2.52,3.66,3.28.93,2.61,1.53-2.54-.94-3.43-.76-1.94.68-.3,1.22,3.36,3.32,1.48,2.09a35.79,35.79,0,0,0-4-2.21,47.93,47.93,0,0,1,2.74,5.55c-1.81-1.18-4.13-4.37-4.44-4.71s.3,6.64-.69,3.76a15.39,15.39,0,0,0-1.68-3.81s-.22,5.69-.68,3.54a6.73,6.73,0,0,0-1.15-2.93l-1.27.23-.75.13a18.74,18.74,0,0,0,.75,7.38c1.14,3.41,3.48,5.63,7.08,4.57,5.88-1.73,2.75-4.64,6.27-5.87s1.15-2.82,3.14-4.61,2.67-2.69,2.16-5.11S475,428.59,475,428.59Zm-4.84-6.24c-1.06,1.64-4.82,3.13-8.41,3.57-.53.07-1.06.11-1.57.13,0,0,.44,1.77,1.5,2.29l.18.07c1.19.39,1.43,2.66,1.82,4.55s4.54,1.18,7.95-1.88,2.41-7.32,1.44-8.4S471.34,420.47,470.11,422.35Zm-7.31-4.62a4.44,4.44,0,0,0-2.84-.31c-2.6.75-2.41,2.64-2.41,2.64.15,1.62,2,3.6,4.28,3.95a4.64,4.64,0,0,0,2.11-.16c3.16-1,2.64-2.48,2.47-3.31C466.29,420,464.65,418.49,462.8,417.73Zm2.75-6.12A7.58,7.58,0,0,0,463,411c-3-.17-7.37,6.2-4.81,4.83a7.27,7.27,0,0,1,4.94-.29l.33.12c1.69.67,4.76,2.62,5.12,2.55s1.5.1,1.06-2A7,7,0,0,0,465.55,411.61ZM479,414.32c-2.39-1.56-3.8-4.38-4.82-5.52a2.14,2.14,0,0,0-3.29,0c-1,.92-2.27,2.9-1.94,4.47,0,0,.48.86,1,.44s1.29.34.79,1.87,1.49-1.82,1.85-1.42-1.22,3-1.4,3.53,1.34-1,2.92-2.37,1.35-.23.28.73-2.37,3-2.28,3.43,2-.37,3.68-.46-.64.85-2.34,1.58.25.81,1.71.5-.27.88-.54,1.72.66,3.12,1.24,3.76,2.39-.17,4.53-.95a5,5,0,0,0,3-5.48A9.51,9.51,0,0,0,479,414.32Zm4.38,9.35c.16.75-2,3.91-5.79,4.09-3,.15,3.91,3.17,4.19,4.5s-1,4,.14,3,2.7-1.23,2.3-3.12,1-2.26,1.18-3.74a5.48,5.48,0,0,0-.59-3.82C484.07,423.08,483.26,422.92,483.41,423.67Zm1.66,21.84c-11,.06-13.44,6.33-13.23,10.66l8.71-6.64s-4.79,6.16-7.89,8.75C477.13,458.82,486.28,455.55,485.07,445.51Zm-10.52,16.14c-3.93,4.45-3.32,9.28-.31,12.9C477.73,469.6,476,464.17,474.55,461.65Zm34-11.81c-2,5.45-5.08,5.36-10.33,4.41s-7.74,2.42-10.71,8.86c6.54,7.22,15.78-.84,16.94-4s3.24-2,7.88-.28a11.52,11.52,0,0,0-5.79-3.54A5.58,5.58,0,0,0,508.55,449.84Zm-35.28,30.72,1.35-.68c2.47-8.12,9.75-13.5,14.59-14.11l-2.74-1.56C478.54,465.58,473.27,480.56,473.27,480.56Zm7.32-7.11c3.84,1.41,13-2.33,13-2.33C491.3,467.33,484.2,467.67,480.59,473.45Zm-56.08-38.19a18.8,18.8,0,0,1,9.49,7.28,26,26,0,0,1,2.86,5.41l1.44-.25a21.65,21.65,0,0,0-4.3-7.18,26.84,26.84,0,0,0-10.1-7C422.44,434.73,422.83,434.65,424.51,435.26Zm7.29.78c2.61-3.71-1.31-11.58-4.2-12.64C425.22,428.27,428.45,433.12,431.8,436Zm-11.27,9.33c4.75,1.83,8.71-1.85,11.92-2.41C428.9,440.46,423.71,440.86,420.53,445.37ZM404.76,427.8c.84,1,6.11,11,17.57,6-3.32-11.61-9.26-10.83-12.06-9.64s-6.91,2.35-8.26-3.27c-1.3,1.84,1.66,5.18,1.66,5.18-4.86.84-5.44,2.4-5.44,2.4S403.92,426.79,404.76,427.8Zm198.86,38.29a98.56,98.56,0,0,0-19.74-33,90.55,90.55,0,0,0-30.7-22.18q-17.79-8-39.46-8H469.16c-1-.35-1.49-1.27-3.64-.82a2.67,2.67,0,0,0-1.45.82c-1.38,1.45-1.52,4.4-1.08,6.48,0,0,.72,0,1.08-1.12s.88-.51,1.24,1.22.53.55.59-1.31,1.18-2.27,1.56-2.14-.79,1.89-.49,3.35c0,.18.08.35.11.51.27,1.11.51,1.59.83.61a9.28,9.28,0,0,1,1.94-2.7,4.47,4.47,0,0,1,1.63-1.22,2.82,2.82,0,0,1,.95-.06,5.47,5.47,0,0,1,2.21,1c1.52,1,.95,1.2.55-.71a3.28,3.28,0,0,0-.48-1.07,39,39,0,0,1,7.28-1.29h28.63a60,60,0,0,1,27.6,8,73.11,73.11,0,0,1,12.26,9.28,80,80,0,0,1,10.7,12.39,108.82,108.82,0,0,1,15.22,32.5,140.36,140.36,0,0,1,5.42,39.47,137.67,137.67,0,0,1-5.42,39.21,112.91,112.91,0,0,1-15.22,32.5,80,80,0,0,1-10.7,12.39,73.11,73.11,0,0,1-12.26,9.28,61,61,0,0,1-29.92,8H484.82a41.61,41.61,0,0,1-11.09-1.68,15.46,15.46,0,0,1-6.72-4,67.25,67.25,0,0,0,12.43,4.78c1.76.5,8.52-2.39,8.52-2.39-10.08-1.08-17.77-3.28-23.61-6.33-37.62-19.68,1.76-74.91-21.77-95.63l-2.61.45c18.56,17.52-2.84,56,9.67,82.11-4.34-6.75-8-19-15.64-28a32.44,32.44,0,0,0-7.65-6.71l0,2.09a36,36,0,0,1,7.67,7.45v22.36a45.2,45.2,0,0,1-1.54,13.16,15.59,15.59,0,0,1-5.16,7.74,20.08,20.08,0,0,1-9.55,3.74,100.54,100.54,0,0,1-14.7.9v1.8H513.72a99.94,99.94,0,0,0,39.46-8,89,89,0,0,0,30.7-22.45,98.67,98.67,0,0,0,19.74-32.89,115.3,115.3,0,0,0,6.83-39.85A116.5,116.5,0,0,0,603.62,466.09ZM463.42,595.42a17.27,17.27,0,0,0,9.65,3.83,31.76,31.76,0,0,1-10.15-5.66c-16.73-14-15.8-44.06-1.31-66.7q.21-.35.45-.69c3,5.88,9.82,10.15,16.46,9.36,8.45-1,9.18-13.28,9.18-13.28l-5.62-1.34s0,2.45-5.77,2.22a10,10,0,0,0,3.82-3.73s-8.91,4.47-13.79-1.4c7.64,1.46,11.19-.5,11.78-1.34-6.25.39-7.33-3.66-7.33-3.66s3.07,1.27,4.87,1.93c-1.82-4.31-5.31-10.71-13.46-9.3l-.59.13c-7.38,1.92-3.87,14.28-1.05,15.32a14.16,14.16,0,0,0,.32,1.95C440.48,559.4,450.81,585.93,463.42,595.42Zm-22.59-37.81c3-4.25,4.79-11.52,3.13-18.47l-1.87,1.55c.94-6.9-7-13.91-7.95-14.26,2.93,4.23,0,14.28,0,14.28l-.14,0a6,6,0,0,1-3.06-2c-.5,3.89-1,10.91,3.06,15.78a13.11,13.11,0,0,0,4.7,3.52c.23-1.7-3.24-5.48-4.7-9.34a8,8,0,0,1-.6-3.72,2,2,0,0,1,.6.42c1.57,1.44,4.31,5.92,4.61,7.65,1.47-5.29-1.81-10,0-14,2.21,2.12.8,10.71,1.92,12.06,0-2.51,1.52-6.38,2.56-7.26C443.71,545.53,439.2,553.08,440.83,557.61ZM434,506.8a22.5,22.5,0,0,0-3.84-.68,27.42,27.42,0,0,1,3.84,1.54c10.36,5.16,10.92,15.08,12.39,26.26C447.05,525.79,447.46,510.47,434,506.8Zm24.13-.67a4.81,4.81,0,0,1,3.48-2.65c3.52-.75,8.18,1.41,9.58,3.4,1.69-3.14-11.41-9-7.25-20.6a6.71,6.71,0,0,0-2.33.33c-3.48,1.13-6.09,4.85-6.06,7.26C453.16,494.74,451.38,503.64,458.13,506.13ZM450,484.9c-.94-6.9-11-7.31-11-7.31l-1,4.62s2-.07,1.91,4.7a8.2,8.2,0,0,0-3.12-3.07s3.8,7.22-.93,11.3c1.07-6.27-.58-9.15-1.27-9.62a7.36,7.36,0,0,1-.61,3.93,4.12,4.12,0,0,1-2.28,2.13s1-2.54,1.51-4c-3.5,1.55-8.69,4.51-7.41,11.16.76,4,4.84,4.44,8.18,3.67,2.25-.52,4.16-1.6,4.49-2.56C445.24,499.1,451,491.8,450,484.9Zm4.34-3.74c3.88-3.36-.57-8.11-1.2-6.28s-5.07,3.25-9.68,2.93c7.44,1.61,9.42,6.91,7.52,10.5C451.29,488.17,456.36,485.34,454.38,481.16Zm-11.05-8.82a7.79,7.79,0,0,0-3.42,1.28l.39,2.34c7.67.8,15.87-2,14-8.82s-5.31-3.28-6.67-7.38-3.24-1.39-5.27-3.74-3.07-3.14-5.87-2.6a4.24,4.24,0,0,0-2.48,2,15.82,15.82,0,0,0-1.86,4.11s.89.84,1.86,1.63,1.91,1.44,2.32,1.36c.86-.16,1.15-3.78,1.84-3s-1.16,2.92-1,3.95.74,2.26,1.4.37,3.92-3.82,2.46-1.68a43.66,43.66,0,0,0-2.65,4.62s5.33-2.85,6.49-3.08c-1.41,2.08-5.14,4.7-5.55,5.05s7.7-.2,4.35.88a18.26,18.26,0,0,0-4.45,1.86S445.83,471.86,443.33,472.34ZM435,463.45a8.58,8.58,0,0,0-1-.95c-3.37-2.87-7.58-1.89-8.75-.89s-2.59,1.9-.44,3.36,4,7,4.09,11.64c0,0,2.29-.53,2.76-1.9.27-.76,1.19-1.17,2.34-1.46.92-.23,2-.37,3-.56C439.16,472.27,438.43,467.47,435,463.45Zm1.45-14.65a2.89,2.89,0,0,1-2.41-.53,4.35,4.35,0,0,0-1.89-.92,6.36,6.36,0,0,0-4.44.62c-1.73.85-1.93,1.79-1.06,1.63s4.49,2.35,4.62,6.79c.07,2.1,1.39.1,2.77-1.92.94-1.36,1.9-2.73,2.53-2.85,1.55-.29,4.64,1.29,3.44-.09S438.61,448.38,436.41,448.8ZM441,423.73c-5.72,1.21-2.84,10.28-.77,11,.73,5.82,7.12,10.67,13.06,9.74s6.14-9.62,6.14-9.62l-4-.8s.09,1.74-4,1.72A7.14,7.14,0,0,0,454,433s-6.17,3.38-9.77-.63c5.43.83,7.89-.65,8.28-1.25-4.4.43-5.27-2.4-5.27-2.4s2.2.82,3.49,1.24C449.35,427,446.72,422.53,441,423.73Zm9.36,21.6s2.56,4.61,6.23,2.79a3.49,3.49,0,0,0,5,.45c.75-.61,1-1.37.38-1.58a1.27,1.27,0,0,1-.38-.2c-1.4-1-2.48-4.46-2.3-8.11C458,445.13,453.49,446.91,450.36,445.33Zm-2-24.24c-.63-1.8-.49-4.09.29-4.25s-2.45-2.11-1.08-1.67,2.23.85,2-.41-2.31-4.39-1.3-3.26,3,3.8,2.54,1.52,0-7.74.33-5.09.53,6.27,1.55,4,2.46-4.38,1.79-2.35-.77,2.34.59,1.77.83.33.26.85.88.5,1,1c.71,3.38,5.12-5,4.55-7.73a6.68,6.68,0,0,0-1.16-2.59c-1.09-1.45-2.71-2.09-4.2-.22-.06.07-.12.15-.19.22a10.51,10.51,0,0,1-7.35,3.62,6.57,6.57,0,0,0-5,7.87C443.86,418.83,449,422.89,448.36,421.09ZM453,413c-2.19.46-5.27,7.19-3.42,11.32s8,9.3,10.16,8.84c1.21-.26,1.68-.53,1.84-.79a.53.53,0,0,0,0-.49l0-.09c-.36-1-2.46-3.39-3.66-5.64a15.92,15.92,0,0,1-1.89-7.54C456,415.71,455.22,412.54,453,413Zm7.9,72.79.68-.12,1.94-.33c4.6-12,7.12-26.11,6.77-36.18l-2.26.39c.24,9.33-1.89,23.93-6.45,34.7C461.39,484.77,461.16,485.29,460.93,485.79Zm.68-16.87a6.25,6.25,0,0,0,1,.1,6.27,6.27,0,0,0-1-4.06v-2.19a17.52,17.52,0,0,1,2.42,4.38,10.48,10.48,0,0,0-2.42-9.34,13.72,13.72,0,0,0-12.67-4.07C451.26,454.59,454.16,467.68,461.61,468.92ZM438,411.5l.23-.08a5.91,5.91,0,0,0-2.24,4.16c-1.66.68-2.69,7,2.14,8.59,1.68-3.75,7.77-1.74,9.24.19,1.12-2.26-8.29-6.08-5.64-14.35a5.26,5.26,0,0,0-3,1c-4.42-6.56-13.47-10.69-13.47-10.69C428.82,402.62,436.18,408.31,438,411.5Zm-8.81-20.76c-2.51,3.2-2.05,8,2.45,12.39C434.05,399.58,431.94,394,429.19,390.74Zm-9.41,6.86c-3.57-6.36-9.48-5.81-11.72-4.54C411.48,398.51,418.8,397.78,419.78,397.6Zm-4.5,8.93c2.24.19,7.22-2.55,8.2-5.24C416.75,400.7,415,402.45,415.28,406.53Zm20.63,5.62c-7.22-2.26-10.94,2.27-10.82,6.64C427.69,420.28,434.51,418,435.91,412.15Z"
      transform="translate(-389.55 -390.74)"
    />
  </svg>